<?xml version="1.0" encoding="utf-8"?>
<!-- Generator: Adobe Illustrator 24.0.1, SVG Export Plug-In . SVG Version: 6.00 Build 0)  -->
<svg version="1.1" id="Layer_1" xmlns="http://www.w3.org/2000/svg" xmlns:xlink="http://www.w3.org/1999/xlink" x="0px" y="0px"
	 viewBox="0 0 1000 649.3" style="enable-background:new 0 0 1000 649.3;" xml:space="preserve">
<style type="text/css">
	.st0{fill:#E83A0C;}
	.st1{fill:#FF5757;}
	.st2{fill:#FF1100;}
	.st3{fill:#FF5252;}
	.st4{fill:#D60029;}
</style>
<path class="st0" d="M546.4,397.2L546.4,397.2c-17.5,17.5-27.4,27.4-44.9,44.9l0,0v44.9V532v89.9h44.9V532h44.9v89.9h44.9V532v-44.9
	v-44.9l0,0c-17.5-17.5-27.4-27.4-44.9-44.9l0,0L546.4,397.2L546.4,397.2z M591.3,487.1h-44.9v-44.9h44.9V487.1z"/>
<polygon class="st1" points="526.3,506.9 601.4,506.9 598.6,487.1 532.4,487.1 "/>
<polygon class="st1" points="695.8,379.6 765.8,239.6 905.8,379.6 "/>
<polygon class="st2" points="810,379.6 723.9,323.4 765.8,239.6 "/>
<path class="st1" d="M173.8,29.6h-70h-70v70v70v70v70v70h70h70l-3.5,0c27.3-27.3,46.2-42.7,73.5-70l0,0v-70v-70v-70l0,0
	C216.5,72.2,201.2,56.9,173.8,29.6L173.8,29.6z M173.8,309.6h-70v-70h70V309.6z M173.8,169.6h-70v-70h70V169.6z"/>
<path class="st0" d="M399.3,29.6v280h-70v-280l0,0c-27.3,27.3-42.7,42.7-70,70v210l0,0c27.3,27.3,42.7,42.7,70,70l0,0h70l0,0
	c27.3-27.3,42.7-42.7,70-70l0,0v-210C442,72.2,426.6,56.9,399.3,29.6L399.3,29.6z"/>
<rect x="485.8" y="309.6" class="st3" width="210" height="70"/>
<rect x="485.8" y="29.6" class="st1" width="70" height="350"/>
<rect x="625.8" y="29.6" class="st0" width="70" height="210"/>
<polygon class="st2" points="786.6,169.6 695.8,169.6 815.4,29.6 905.8,29.6 "/>
<polygon class="st4" points="810,379.6 905.8,379.6 786.6,169.6 695.8,169.6 "/>
<polygon class="st2" points="68.8,64.6 68.8,344.6 33.8,379.6 33.8,29.5 "/>
<polygon class="st1" points="103.8,99.6 103.8,309.6 68.8,344.6 68.8,64.6 "/>
<polygon class="st1" points="68.8,64.6 173.8,29.6 33.8,29.6 "/>
<polygon class="st2" points="103.8,99.6 173.8,29.6 68.8,64.6 "/>
<polygon class="st3" points="173.8,29.6 103.8,99.6 243.9,99.6 "/>
<path class="st0" d="M173.8,99.6"/>
<polygon class="st3" points="170.3,379.6 173.8,309.6 243.9,309.6 "/>
<polygon class="st3" points="173.8,309.6 33.8,379.6 103.8,309.6 "/>
<polygon class="st0" points="170.3,379.6 173.8,309.6 33.8,379.6 "/>
<polygon class="st4" points="103.8,169.6 124.7,204.6 103.8,239.6 "/>
<polygon class="st0" points="124.7,204.6 243.9,204.6 173.8,169.6 103.8,169.6 "/>
<polygon class="st2" points="103.8,239.6 124.7,204.6 243.9,204.6 173.8,239.6 "/>
<path class="st2" d="M318.4,204.6"/>
<polygon class="st0" points="259.3,309.6 469.3,309.6 399.3,379.6 "/>
<polygon class="st3" points="329.3,379.6 259.3,309.6 399.3,379.6 "/>
<polygon class="st3" points="469.3,309.6 399.3,29.6 399.3,309.6 "/>
<polygon class="st1" points="259.3,309.6 329.3,29.6 329.3,309.6 "/>
<polygon class="st2" points="399.3,309.6 469.3,29.6 469.3,309.6 "/>
<polygon class="st2" points="329.3,309.6 259.3,29.5 259.3,309.6 "/>
<polygon class="st3" points="485.8,29.6 520.7,64.5 555.7,29.5 "/>
<polygon class="st3" points="626.4,29.6 661.4,64.5 696.4,29.5 "/>
<polygon class="st2" points="485.8,379.6 523.1,342.3 555.8,379.6 "/>
<polygon class="st2" points="523.1,342.3 520.7,64.5 485.8,29.6 485.8,379.6 "/>
<polygon class="st2" points="523.1,342.3 555.8,309.6 695.8,309.6 661.1,344.3 "/>
<polygon class="st0" points="695.8,379.6 661.1,344.3 523.1,342.3 555.8,379.6 "/>
<polygon class="st2" points="661.4,64.5 661.4,239.6 625.8,239.6 626.4,29.6 "/>
<polygon class="st3" points="815.4,29.6 848.7,62.9 905.8,29.6 "/>
<polygon class="st4" points="848.7,62.9 759.9,169.6 695.8,169.6 815.4,29.6 "/>
<polygon class="st3" points="810,379.6 852.9,342.3 905.8,379.6 "/>
<polygon class="st0" points="852.9,342.3 759.9,169.6 695.8,169.6 810,379.6 "/>
<rect x="78.8" y="394.5" class="st1" width="44.9" height="224.6"/>
<path class="st1" d="M268.5,394.5h-44.9l0,0c-17.6,17.5-27.4,27.4-44.9,44.9l0,0v134.8l0,0c17.6,17.5,27.4,27.4,44.9,44.9l0,0h44.9
	l0,0c17.5-17.5,27.4-27.4,44.9-44.9l0,0V439.5l0,0C295.9,421.9,286,412.1,268.5,394.5L268.5,394.5z M268.5,574.2h-44.9V439.5h44.9
	V574.2z"/>
<path class="st1" d="M816,397.2c-17.5,17.5-27.4,27.4-44.9,44.9l0,0v44.9V532V577l0,0c17.5,17.5,27.4,27.4,44.9,44.9l0,0h89.9V577
	H816V532h89.9v-44.9H816v-44.9h89.9v-44.9L816,397.2L816,397.2z"/>
<path class="st2" d="M401.6,397.2c-17.5,17.5-27.4,27.4-44.9,44.9l0,0v44.9l0,0c17.5,17.5,27.4,27.4,44.9,44.9l0,0h44.9V577h-89.9
	v44.9h89.9l0,0c17.5-17.5,27.4-27.4,44.9-44.9l0,0V532l0,0c-17.5-17.5-27.4-27.4-44.9-44.9l0,0h-44.9v-44.9h89.9v-44.9H401.6
	L401.6,397.2z"/>
<polygon class="st1" points="703.6,509.6 681.2,397.2 636.3,397.2 681.2,621.9 726.1,621.9 771,397.2 726.1,397.2 "/>
<path class="st0" d="M938.2,82.7c-15.4,0-28-12.6-28-28s12.5-28,28-28s28,12.5,28,28S953.6,82.7,938.2,82.7z M938.2,32.9
	c-12,0-21.8,9.8-21.8,21.8s9.8,21.8,21.8,21.8c12,0,21.8-9.8,21.8-21.8S950.2,32.9,938.2,32.9z"/>
<g>
	<g>
		<path class="st0" d="M928.5,67V42h10.8c2.2,0,4.2,0.4,5.8,1.1s2.9,1.8,3.7,3.1c0.9,1.4,1.3,3,1.3,4.8c0,1.9-0.4,3.5-1.3,4.8
			s-2.1,2.4-3.7,3.1c-1.6,0.7-3.5,1-5.8,1h-7.6l2.6-2.5V67H928.5z M934.4,58.1l-2.6-2.8h7.3c1.8,0,3.1-0.4,4-1.1
			c0.9-0.8,1.4-1.8,1.4-3.2c0-1.4-0.5-2.4-1.4-3.2c-0.9-0.8-2.2-1.1-4-1.1h-7.3l2.6-2.8V58.1z M944.5,67l-6.3-9.1h6.2l6.3,9.1H944.5
			z"/>
	</g>
</g>
<polygon class="st3" points="329.3,29.6 259.3,29.5 273.3,85.6 "/>
<polygon class="st3" points="455.3,85.6 399.3,29.6 469.5,29.6 "/>
<polygon class="st0" points="485.8,29.6 523.1,342.3 520.7,64.5 "/>
<polygon class="st2" points="523.1,342.3 555.7,29.5 520.7,64.5 "/>
<polygon class="st0" points="661.4,239.6 626.4,29.6 661.4,64.5 "/>
<polygon class="st2" points="661.4,239.6 696.4,29.5 661.4,64.5 "/>
<polygon class="st3" points="759.9,169.6 815.4,29.6 848.7,62.9 "/>
<polygon class="st2" points="810,379.6 759.9,169.6 852.9,342.3 "/>
<polygon class="st0" points="243.9,204.6 173.8,309.6 243.9,309.6 "/>
<polygon class="st2" points="243.9,204.6 173.8,99.6 243.9,99.6 "/>
<polygon class="st2" points="102.6,595.3 123.7,439.5 123.7,619.2 "/>
<rect x="33.8" y="394.5" class="st2" width="134.8" height="44.9"/>
<polygon class="st0" points="168.6,394.5 146.1,417 168.6,439.5 "/>
<polygon class="st0" points="33.8,394.1 56.3,416.5 33.8,439 "/>
<polygon class="st3" points="33.8,394.1 168.6,394.5 146.1,417 56.3,416.5 "/>
<polygon class="st0" points="78.8,439.5 102.6,595.3 78.8,619.2 "/>
<polygon class="st3" points="178.6,574.2 313.4,574.2 268.5,619.2 223.6,619.2 "/>
<polygon class="st0" points="268.5,619.2 178.6,574.2 223.6,619.2 "/>
<polygon class="st0" points="178.6,439.5 313.4,439.5 268.5,394.5 223.6,394.5 "/>
<polygon class="st2" points="178.6,439.5 268.5,394.5 313.4,439.5 "/>
<polygon class="st2" points="313.4,574.2 268.5,439.5 268.5,574.2 "/>
<polygon class="st0" points="268.5,574.2 313.4,439.5 313.4,574.2 "/>
<polygon class="st2" points="178.6,574.2 223.6,439.5 223.6,574.2 "/>
<polygon class="st0" points="223.6,574.2 178.6,439.5 178.6,574.2 "/>
<polygon class="st3" points="491.5,397.2 442.1,442.2 491.5,442.2 "/>
<polygon class="st0" points="491.5,442.2 356.7,442.2 401.6,397.2 "/>
<polygon class="st0" points="401.6,532 401.6,487.1 356.7,487.1 "/>
<polygon class="st3" points="401.6,487.1 356.7,442.2 356.7,487.1 "/>
<polygon class="st0" points="446.5,487.1 446.5,619.2 491.5,577 "/>
<polygon class="st3" points="491.5,577 446.5,487.1 491.5,532 "/>
<polygon class="st3" points="356.7,577 379.8,600 357.3,622.5 "/>
<polygon class="st0" points="379.8,600 446.5,600 446.5,577 356.7,577 "/>
<polygon class="st2" points="501.5,442.2 636.3,442.2 546.4,397.2 "/>
<polygon class="st3" points="591.3,397.2 568.9,408.5 636.3,442.2 "/>
<polygon class="st4" points="501.5,442.2 546.4,621.9 501.5,621.9 "/>
<polygon class="st2" points="546.4,621.9 546.4,442.2 520.7,519.2 "/>
<path class="st2" d="M511.2,542.5"/>
<polygon class="st2" points="636.3,621.9 591.3,442.2 591.3,621.9 "/>
<polygon class="st4" points="636.3,442.2 591.3,621.9 636.3,621.9 "/>
<polygon class="st4" points="681.2,621.9 703.6,509.6 726.1,621.9 "/>
<polygon class="st0" points="726.1,621.9 726.1,397.2 771,397.2 "/>
<polygon class="st2" points="771,397.2 726.1,505.1 726.1,621.9 "/>
<polygon class="st2" points="681.2,621.9 681.2,397.2 636.3,397.2 "/>
<polygon class="st0" points="681.2,506.9 636.3,397.2 681.2,397.2 "/>
<polygon class="st0" points="703.6,509.6 681.2,550.3 681.2,621.9 "/>
<polygon class="st0" points="702.1,509.4 724.5,546.6 724.6,621.8 "/>
<polygon class="st2" points="905.8,442.2 771,442.2 816,397.2 "/>
<polygon class="st3" points="905.8,397.2 869.1,423.8 905.8,442.2 "/>
<polygon class="st2" points="905.8,577 771,577 816,621.9 "/>
<polygon class="st3" points="905.8,621.9 905.8,577 866.3,596.7 "/>
<polygon class="st3" points="905.8,487.1 869.1,509.6 905.8,532 "/>
<polygon class="st2" points="869.1,509.6 790.4,509.6 816,487.1 905.8,487.1 "/>
<polygon class="st0" points="790.4,509.6 790.4,443.3 816,442.2 816,487.1 "/>
<polygon class="st0" points="816,532 790.4,509.6 790.4,577 816,577 "/>
</svg>
